<?xml version="1.0" encoding="UTF-8"?>
<!DOCTYPE svg PUBLIC "-//W3C//DTD SVG 1.1//EN" "http://www.w3.org/Graphics/SVG/1.1/DTD/svg11.dtd">
<svg xmlns="http://www.w3.org/2000/svg" version="1.1" width="880px" height="287px" style="shape-rendering:geometricPrecision; text-rendering:geometricPrecision; image-rendering:optimizeQuality; fill-rule:evenodd; clip-rule:evenodd" xmlns:xlink="http://www.w3.org/1999/xlink">
<g><path style="opacity:0.916" fill="#000000" d="M 210.5,65.5 C 252.012,62.5642 280.512,80.2308 296,118.5C 306.394,161.695 292.228,193.861 253.5,215C 213.402,228.361 180.902,218.195 156,184.5C 136.982,145.942 142.815,111.775 173.5,82C 184.745,73.8705 197.078,68.3705 210.5,65.5 Z M 213.5,80.5 C 244.667,79.156 266.833,92.4894 280,120.5C 290.591,158.476 278.091,185.643 242.5,202C 212.22,210.575 188.053,202.075 170,176.5C 155.451,149.291 157.951,123.791 177.5,100C 187.975,90.5973 199.975,84.0973 213.5,80.5 Z"/></g>
<g><path style="opacity:0.973" fill="#000000" d="M 378.5,65.5 C 417.554,62.2694 445.387,78.2694 462,113.5C 474.484,153.041 464.317,185.208 431.5,210C 401.333,226.364 372,225.031 343.5,206C 314.704,180.923 306.204,150.09 318,113.5C 330.11,87.2114 350.277,71.2114 378.5,65.5 Z M 363.5,115.5 C 369.082,115.988 371.248,118.988 370,124.5C 365.616,128.565 362.449,127.732 360.5,122C 360.84,119.489 361.84,117.322 363.5,115.5 Z M 413.5,115.5 C 419.356,115.854 421.523,118.854 420,124.5C 415.616,128.565 412.449,127.732 410.5,122C 410.84,119.489 411.84,117.322 413.5,115.5 Z M 355.5,158.5 C 359.984,159.124 363.65,161.29 366.5,165C 387.127,175.39 406.294,173.223 424,158.5C 429.3,162.135 429.133,165.968 423.5,170C 403.21,185.395 382.21,186.395 360.5,173C 357.462,170.297 354.795,167.297 352.5,164C 353.223,161.982 354.223,160.148 355.5,158.5 Z"/></g>
<g><path style="opacity:0.956" fill="#000000" d="M 565.5,65.5 C 589.724,63.9257 603.39,75.0924 606.5,99C 606.395,107.272 604.061,114.772 599.5,121.5C 616.199,132.35 634.199,140.183 653.5,145C 664.489,146.12 675.489,147.12 686.5,148C 700.727,151.887 708.893,161.054 711,175.5C 711.666,190.513 711.5,205.513 710.5,220.5C 676.505,221.26 642.505,221.593 608.5,221.5C 608.667,205.163 608.5,188.83 608,172.5C 605.756,163.255 600.256,156.755 591.5,153C 573.952,148.165 557.286,150.165 541.5,159C 538.213,162.293 535.713,166.127 534,170.5C 533.5,187.497 533.333,204.497 533.5,221.5C 530.07,221.893 526.904,221.227 524,219.5C 523.667,209.833 523.333,200.167 523,190.5C 516.644,194.316 510.144,194.483 503.5,191C 498.014,185.201 496.181,178.368 498,170.5C 502.942,153.895 512.775,141.061 527.5,132C 533.675,128.412 540.009,125.078 546.5,122C 537.711,109.72 536.211,96.5538 542,82.5C 547.527,73.4498 555.36,67.7831 565.5,65.5 Z M 568.5,74.5 C 592.353,77.1693 600.519,89.8359 593,112.5C 582.231,126.216 569.731,128.05 555.5,118C 545.871,107.513 545.038,96.346 553,84.5C 557.5,80.0081 562.667,76.6747 568.5,74.5 Z"/></g>
<g><path style="opacity:0.974" fill="#000000" d="M 660.5,65.5 C 680.947,63.4617 694.447,72.1284 701,91.5C 702.306,124.53 686.806,137.697 654.5,131C 637.753,122.669 631.253,109.169 635,90.5C 639.452,77.88 647.952,69.5467 660.5,65.5 Z"/></g>
<g><path style="opacity:0.844" fill="#000000" d="M 189.5,111.5 C 201.057,110.384 204.391,115.051 199.5,125.5C 197.833,125.833 196.167,126.167 194.5,126.5C 188.908,126.908 186.241,124.241 186.5,118.5C 186.93,115.862 187.93,113.529 189.5,111.5 Z"/></g>
<g><path style="opacity:0.844" fill="#000000" d="M 245.5,111.5 C 252.653,109.552 256.986,112.052 258.5,119C 258.216,124.119 255.549,126.619 250.5,126.5C 244.857,126.857 242.191,124.191 242.5,118.5C 242.93,115.862 243.93,113.529 245.5,111.5 Z"/></g>
<g><path style="opacity:0.912" fill="#000000" d="M 183.5,152.5 C 185.857,152.337 188.19,152.503 190.5,153C 199.557,160.799 210.057,165.299 222,166.5C 233.943,165.299 244.443,160.799 253.5,153C 263.544,151.905 266.544,156.071 262.5,165.5C 235.066,188.435 207.899,188.101 181,164.5C 178.68,159.788 179.513,155.788 183.5,152.5 Z"/></g>
</svg>
