<?xml version="1.0" encoding="UTF-8"?>
<!DOCTYPE svg PUBLIC "-//W3C//DTD SVG 1.1//EN" "http://www.w3.org/Graphics/SVG/1.1/DTD/svg11.dtd">
<svg xmlns="http://www.w3.org/2000/svg" version="1.1" width="884px" height="288px" style="shape-rendering:geometricPrecision; text-rendering:geometricPrecision; image-rendering:optimizeQuality; fill-rule:evenodd; clip-rule:evenodd" xmlns:xlink="http://www.w3.org/1999/xlink">
<g><path style="opacity:1" fill="#b5771a" d="M 214.5,67.5 C 254.734,65.6826 282.234,83.3493 297,120.5C 306.855,162.947 292.688,194.447 254.5,215C 216.369,228.063 184.869,218.896 160,187.5C 147.468,167.303 144.134,145.636 150,122.5C 160.671,91.3195 182.171,72.9862 214.5,67.5 Z M 216.5,80.5 C 247.655,79.1513 269.822,92.4846 283,120.5C 293.877,157.57 282.377,185.07 248.5,203C 216.203,213.892 190.037,205.726 170,178.5C 156.509,153.512 157.509,129.179 173,105.5C 184.532,91.8229 199.032,83.4895 216.5,80.5 Z"/></g>
<g><path style="opacity:1" fill="#b37513" d="M 383.5,67.5 C 421.064,65.6921 447.897,81.6921 464,115.5C 475.77,151.507 467.27,181.674 438.5,206C 407.833,226.667 377.167,226.667 346.5,206C 317.861,181.621 309.361,151.454 321,115.5C 333.519,88.5092 354.352,72.5092 383.5,67.5 Z M 365.5,115.5 C 372.409,115.953 374.909,119.62 373,126.5C 369.333,130.5 365.667,130.5 362,126.5C 360.518,121.774 361.685,118.107 365.5,115.5 Z M 415.5,115.5 C 422.809,115.666 425.309,119.333 423,126.5C 419.333,130.5 415.667,130.5 412,126.5C 410.663,121.872 411.83,118.205 415.5,115.5 Z M 357.5,158.5 C 359.199,158.34 360.866,158.506 362.5,159C 375.749,171.784 391.082,175.117 408.5,169C 414.54,165.986 420.207,162.486 425.5,158.5C 431.074,159.983 432.574,163.316 430,168.5C 409.691,186.708 387.525,189.208 363.5,176C 359.667,173.5 356.5,170.333 354,166.5C 353.52,163.137 354.687,160.47 357.5,158.5 Z"/></g>
<g><path style="opacity:1" fill="#b37513" d="M 713.5,220.5 C 680.167,220.5 646.833,220.5 613.5,220.5C 613.83,204.991 613.496,189.658 612.5,174.5C 609.351,160.197 600.351,152.364 585.5,151C 571.821,148.932 558.821,150.932 546.5,157C 541.916,160.593 538.416,165.093 536,170.5C 535.5,187.497 535.333,204.497 535.5,221.5C 532.881,221.768 530.381,221.435 528,220.5C 527.667,210.167 527.333,199.833 527,189.5C 520.866,194.161 514.366,194.661 507.5,191C 501.939,185.636 500.105,179.136 502,171.5C 507.359,155.475 517.192,142.975 531.5,134C 538.04,130.23 544.707,126.73 551.5,123.5C 541.271,110.91 539.771,97.2436 547,82.5C 559.269,66.976 574.436,63.476 592.5,72C 608.018,83.5685 612.185,98.4018 605,116.5C 603.542,118.96 601.709,121.127 599.5,123C 611.677,129.589 624.01,135.922 636.5,142C 642.709,144.136 649.042,145.802 655.5,147C 666.848,147.895 678.182,148.895 689.5,150C 699.679,152.526 707.179,158.359 712,167.5C 712.988,170.424 713.654,173.424 714,176.5C 714.828,191.339 714.661,206.006 713.5,220.5 Z M 574.5,74.5 C 595.646,77.7948 603.813,89.7948 599,110.5C 592.688,122.987 582.688,128.32 569,126.5C 550.962,118.721 545.629,105.721 553,87.5C 558.291,79.943 565.457,75.6097 574.5,74.5 Z"/></g>
<g><path style="opacity:1" fill="#b37513" d="M 665.5,67.5 C 685.037,66.345 697.87,75.0117 704,93.5C 705.303,121.864 691.803,135.031 663.5,133C 643.998,126.514 635.831,113.014 639,92.5C 643.548,79.4476 652.381,71.1143 665.5,67.5 Z"/></g>
<g><path style="opacity:1" fill="#b97d25" d="M 191.5,113.5 C 201.466,113.312 204.133,117.479 199.5,126C 191.842,128.343 188.342,125.51 189,117.5C 189.662,116.016 190.496,114.683 191.5,113.5 Z"/></g>
<g><path style="opacity:1" fill="#ba7d27" d="M 248.5,113.5 C 254.651,111.844 258.317,114.01 259.5,120C 257.438,127.621 253.271,129.121 247,124.5C 245.063,120.559 245.563,116.893 248.5,113.5 Z"/></g>
<g><path style="opacity:1" fill="#b6791d" d="M 185.5,154.5 C 187.527,154.338 189.527,154.505 191.5,155C 212.873,172.996 234.207,172.996 255.5,155C 264.156,153.817 266.99,157.317 264,165.5C 237.169,187.998 210.335,187.998 183.5,165.5C 180.573,161.137 181.24,157.471 185.5,154.5 Z"/></g>
<g><path style="opacity:0.854" fill="#ddc195" d="M 612.5,174.5 C 613.496,189.658 613.83,204.991 613.5,220.5C 646.833,220.5 680.167,220.5 713.5,220.5C 680.004,221.498 646.337,221.832 612.5,221.5C 612.5,205.833 612.5,190.167 612.5,174.5 Z"/></g>
</svg>
