<svg width="27" height="24" viewBox="0 0 27 24" fill="none" xmlns="http://www.w3.org/2000/svg">
    <path d="M25.3913 3.66935L15.5604 0.150391L8.52117 0.698195L3.40886 3.54017L1.90466 5.05052L0.606513 7.05622L0 9.2892V11.1113L3.96991 15.9153L9.18669 15.8221L13.4429 20.0462L14.7034 18.9914L14.6879 19.5508L19.3988 23.1504H22.0009L20.3854 19.7713L19.6899 18.9651L22.0434 17.7481L24.7829 15.3908L27 11.4435L25.3913 3.67129V3.66935ZM8.92068 2.03468L15.3776 1.53253L24.218 4.69697L24.5536 6.32096H19.5148L17.851 8.14211H12.5259L11.5547 6.51327L12.7755 5.09617H16.0479C16.2636 5.45554 16.6545 5.69642 17.1023 5.69642C17.7824 5.69642 18.3337 5.14279 18.3337 4.45998C18.3337 3.77716 17.7824 3.22353 17.1023 3.22353C16.6931 3.22353 16.3314 3.42459 16.1079 3.73346H12.1554L10.8215 5.28168L10.3543 4.49883H4.48839L8.92165 2.03468H8.92068ZM23.7169 14.5098L21.2802 16.6078L17.5328 18.5465L19.2401 20.525L19.835 21.7702L16.0634 18.8884L16.1408 16.0134L13.5193 18.2066L9.73323 14.4487L4.59673 14.5409L4.35974 14.2534L4.77472 12.9859H4.87532C5.09684 13.3113 5.46926 13.525 5.89198 13.525C6.57201 13.525 7.12339 12.9713 7.12339 12.2885C7.12339 11.6057 6.57201 11.0521 5.89198 11.0521C5.45669 11.0521 5.07459 11.2794 4.85598 11.6222H3.79192L3.33631 13.0141L1.35716 10.6189V9.50482H7.98914L10.0689 12.6139H10.7015L12.2957 15.2286H13.4932C13.7138 15.5627 14.091 15.7832 14.5205 15.7832C15.2006 15.7832 15.7519 15.2296 15.7519 14.5468C15.7519 13.8639 15.2006 13.3103 14.5205 13.3103C14.091 13.3103 13.7138 13.5308 13.4932 13.8649H13.056L12.2928 12.6139H17.1246L18.1877 14.3311H23.8175L23.7169 14.5098ZM24.5836 12.9675H18.9422L17.8791 11.2502H10.7925L8.7127 8.14114H1.71894L1.86017 7.61956L2.96485 5.91302L3.01612 5.86154H9.5833L11.7559 9.50482H18.4479L20.1117 7.68367H24.8361L25.2482 9.67383H22.0618C21.8374 9.37273 21.4804 9.1775 21.0771 9.1775C20.397 9.1775 19.8457 9.73113 19.8457 10.4139C19.8457 11.0968 20.397 11.6504 21.0771 11.6504C21.5307 11.6504 21.9254 11.4037 22.1392 11.0375H25.5297L25.5674 11.2182L24.5836 12.9684V12.9675Z" fill="url(#paint0_linear_14_439)"/>
    <defs>
        <linearGradient id="paint0_linear_14_439" x1="0" y1="11.749" x2="27" y2="11.749" gradientUnits="userSpaceOnUse">
            <stop stop-color="#9FBFFF"/>
            <stop offset="1" stop-color="#D6B0FF"/>
        </linearGradient>
    </defs>
</svg>
